<?xml version="1.0" standalone="no"?>
<!DOCTYPE svg PUBLIC "-//W3C//DTD SVG 20010904//EN"
 "http://www.w3.org/TR/2001/REC-SVG-20010904/DTD/svg10.dtd">
<svg version="1.0" xmlns="http://www.w3.org/2000/svg"
 width="400.000000pt" height="400.000000pt" viewBox="0 0 400.000000 400.000000"
 preserveAspectRatio="xMidYMid meet">
<metadata>
Created by potrace 1.11, written by Peter Selinger 2001-2013
</metadata>
<g transform="translate(0.000000,400.000000) scale(0.100000,-0.100000)"
fill="#000000" stroke="none">
<path d="M1572 3434 c0 -311 -2 -567 -4 -570 -3 -2 -356 -5 -785 -6 l-781 -1
0 -209 c0 -115 4 -211 8 -213 5 -3 260 -6 569 -7 396 -1 561 -4 563 -12 2 -6
3 -552 3 -1214 l0 -1202 212 0 213 0 1 38 c0 20 0 276 1 569 0 486 1 531 16
535 10 2 202 3 427 3 l410 0 2 -545 c2 -300 3 -557 3 -573 l0 -27 213 0 213 1
0 1182 c-1 650 1 1196 2 1213 l4 32 331 0 c183 0 439 1 570 1 l237 1 -1 214
-1 213 -781 1 -782 1 -3 571 -2 570 -429 0 -428 0 -1 -566z"/>
</g>
</svg>
